<svg width="346" height="36" viewBox="0 0 346 36" fill="none" xmlns="http://www.w3.org/2000/svg">
<path d="M57.6505 0.0909424L64.6903 11.9887H64.963L72.0369 0.0909424H80.3721L69.7187 17.5455L80.6108 35H72.1221L64.963 23.0853H64.6903L57.5312 35H49.0767L60.0028 17.5455L49.2812 0.0909424H57.6505Z" fill="currentColor"/>
<path d="M43.0369 0.0909424H50.4175V22.7614C50.4175 25.3069 49.8096 27.5341 48.5937 29.4432C47.3891 31.3523 45.7016 32.8409 43.5312 33.9091C41.3607 34.9659 38.8323 35.4944 35.946 35.4944C33.0482 35.4944 30.5141 34.9659 28.3437 33.9091C26.1732 32.8409 24.4857 31.3523 23.2812 29.4432C22.0766 27.5341 21.4744 25.3069 21.4744 22.7614V0.0909424H28.855V22.1307C28.855 23.4603 29.1448 24.6421 29.7244 25.6762C30.3153 26.7103 31.1448 27.5228 32.213 28.1137C33.2812 28.7046 34.5255 29 35.946 29C37.3778 29 38.6221 28.7046 39.6789 28.1137C40.7471 27.5228 41.571 26.7103 42.1505 25.6762C42.7414 24.6421 43.0369 23.4603 43.0369 22.1307V0.0909424Z" fill="currentColor"/>
<path d="M0 35V0.0909424H7.38068V28.9148H22.3466V35H0Z" fill="currentColor"/>
<path d="M85.7694 0.97936C86.1297 0.372217 86.7834 0 87.4894 0H343.966C345.07 0 345.966 0.89543 345.966 2V33C345.966 34.1046 345.071 35 343.966 35H87.4894C86.7834 35 86.1297 34.6278 85.7694 34.0206L76.5716 18.5206C76.1982 17.8914 76.1982 17.1086 76.5716 16.4794L85.7694 0.97936Z" fill="currentColor"/>
</svg>