<?xml version="1.0" encoding="UTF-8"?><svg id="a" xmlns="http://www.w3.org/2000/svg" viewBox="0 0 14400 14400"><polygon points="7805.323 7412.979 7637.773 7412.979 7562.249 7304.3 7487.31 7412.987 7319.122 7412.987 7478.399 7183.322 7328.749 6968.993 7496.283 6968.993 7562.235 7062.328 7628.21 6968.993 7796.343 6968.993 7646.714 7183.318 7805.323 7412.979"/><path d="M7155.544,6970.027l138.13-.057v269.863c-.076,116.521-71.246,192.164-190.965,191.164-106.506-.89-188.004-72.04-190.965-194.114v-266.905h138.25v264.789c1.901,55.762,44.728,57.169,50.355,57.369,13.683.486,55.193-3.09,55.194-58.373v-263.737Z"/><polygon points="6872.628 7274.789 6872.655 7412.972 6593.677 7412.972 6593.677 6969.018 6731.266 6969.018 6731.266 7274.789 6872.628 7274.789"/></svg>